<svg width="30" height="19" viewBox="0 0 30 19" fill="none" xmlns="http://www.w3.org/2000/svg">
<path d="M24.85 4.35701C24.0837 3.01289 23.0147 1.90645 21.7456 1.14363C20.4764 0.380814 19.0495 -0.0128531 17.6014 0.000320063C16.1533 0.0134932 14.7326 0.433065 13.4752 1.21887C12.2178 2.00467 11.1658 3.1304 10.42 4.48828C10.0231 4.36493 9.61258 4.30235 9.20001 4.30232C8.60405 4.3016 8.01379 4.42938 7.463 4.67837C6.91221 4.92736 6.41168 5.29266 5.99004 5.7534C5.56839 6.21413 5.23391 6.76127 5.00569 7.36351C4.77747 7.96575 4.66 8.6113 4.66 9.26324H2.265C1.66428 9.26324 1.08818 9.52428 0.663406 9.98894C0.238636 10.4536 0 11.0838 0 11.741C0 12.3981 0.238636 13.0283 0.663406 13.493C1.08818 13.9576 1.66428 14.2187 2.265 14.2187H10.525C11.2076 15.3987 12.1256 16.3943 13.2101 17.1309C14.2946 17.8675 15.5176 18.3258 16.7871 18.4716C18.0567 18.6174 19.34 18.4468 20.5406 17.9726C21.7413 17.4984 22.8283 16.733 23.72 15.7338C23.8649 15.7419 24.0101 15.7419 24.155 15.7338C25.4495 15.6807 26.6802 15.105 27.6095 14.1178C28.5388 13.1306 29.1009 11.8018 29.1872 10.3879C29.2736 8.97394 28.8782 7.57515 28.0772 6.46142C27.2762 5.3477 26.1265 4.598 24.85 4.35701Z" fill="#D0FBE5"/>
</svg>
