<svg width="24" height="16" viewBox="0 0 24 16" fill="none" xmlns="http://www.w3.org/2000/svg">
<path d="M23.1329 12.1409C23.1329 11.3778 22.8558 10.6461 22.3626 10.1065C21.8694 9.56697 21.2004 9.26386 20.5029 9.26386C20.2473 9.26475 19.9931 9.30525 19.7479 9.38418C19.7883 9.09274 19.8084 8.79836 19.8079 8.50358C19.8079 6.88758 19.2211 5.33777 18.1765 4.19509C17.1319 3.05241 15.7152 2.41045 14.2379 2.41045C13.8938 2.41081 13.5506 2.44745 13.2129 2.51985C12.6604 1.54389 11.8342 0.789525 10.8576 0.369331C9.88102 -0.0508625 8.80641 -0.114359 7.79414 0.188316C6.78186 0.490991 5.88619 1.14361 5.24077 2.04878C4.59536 2.95396 4.2348 4.06317 4.21291 5.21089H4.13291C3.00676 5.31173 1.95649 5.87233 1.1908 6.7813C0.425104 7.69026 3.05176e-05 8.88107 3.05176e-05 10.1171C3.05176e-05 11.3532 0.425104 12.544 1.1908 13.4529C1.95649 14.3619 3.00676 14.9225 4.13291 15.0233H20.5779C21.2636 15.0033 21.915 14.6905 22.3925 14.1518C22.87 13.613 23.1358 12.8912 23.1329 12.1409Z" fill="#D0FBE5"/>
</svg>
