<svg width="38" height="18" viewBox="0 0 38 18" fill="none" xmlns="http://www.w3.org/2000/svg">
<path d="M35.025 11.6337H25.435C25.4626 11.3795 25.4776 11.1239 25.48 10.868C25.476 9.0415 24.811 7.29109 23.6304 5.99959C22.4498 4.70808 20.8496 3.98061 19.18 3.97627H18.95C18.4939 2.63466 17.6212 1.51106 16.4846 0.80187C15.348 0.0926802 14.0197 -0.156995 12.7319 0.0964804C11.4441 0.349956 10.2786 1.09046 9.43926 2.18857C8.59991 3.28668 8.14003 4.67254 8.14 6.10394C6.81605 6.16885 5.5618 6.77149 4.62238 7.79409C3.68295 8.81669 3.12587 10.1857 3.06 11.6337H2.805C2.06107 11.6337 1.3476 11.957 0.821564 12.5324C0.295524 13.1079 0 13.8883 0 14.7021C0 15.5159 0.295524 16.2964 0.821564 16.8719C1.3476 17.4473 2.06107 17.7706 2.805 17.7706H35.025C35.7689 17.7706 36.4824 17.4473 37.0084 16.8719C37.5345 16.2964 37.83 15.5159 37.83 14.7021C37.83 13.8883 37.5345 13.1079 37.0084 12.5324C36.4824 11.957 35.7689 11.6337 35.025 11.6337Z" fill="#D0FBE5"/>
</svg>
