<svg width="28" height="29" viewBox="0 0 28 29" fill="none" xmlns="http://www.w3.org/2000/svg">
<path d="M25.3081 17.5596C26.7948 11.3057 22.9372 5.02894 16.6919 3.54019C10.4466 2.05143 4.17858 5.91441 2.69189 12.1684C1.2052 18.4223 5.06281 24.6991 11.3081 26.1878C17.5534 27.6766 23.8214 23.8136 25.3081 17.5596Z" fill="#009969"/>
<path d="M23.5928 15.5771C23.5928 17.4774 23.03 19.3351 21.9757 20.9151C20.9214 22.4952 19.4229 23.7267 17.6697 24.4539C15.9164 25.1811 13.9872 25.3714 12.126 25.0007C10.2648 24.6299 8.55511 23.7149 7.21324 22.3711C5.87137 21.0274 4.95754 19.3154 4.58732 17.4516C4.2171 15.5877 4.40711 13.6558 5.13333 11.9002C5.85954 10.1445 7.08935 8.6439 8.66722 7.58814C10.2451 6.53237 12.1002 5.96886 13.9979 5.96886C15.2596 5.96284 16.51 6.20725 17.6768 6.68798C18.8436 7.16871 19.9037 7.87622 20.7959 8.76962C21.6881 9.66303 22.3946 10.7246 22.8746 11.8931C23.3547 13.0615 23.5988 14.3136 23.5928 15.5771Z" fill="#FAFAFA"/>
<path opacity="0.7" d="M22.4323 20.0535C21.6077 21.5711 20.3896 22.838 18.9064 23.7207C17.4232 24.6034 15.7297 25.0693 14.0044 25.0693C12.279 25.0693 10.5856 24.6034 9.10235 23.7207C7.61915 22.838 6.40109 21.5711 5.57642 20.0535C8.07269 18.3884 11.005 17.5 14.0044 17.5C17.0037 17.5 19.9361 18.3884 22.4323 20.0535Z" fill="#7DC9B1"/>
<path opacity="0.7" d="M13.9979 17.0878C16.3575 17.0878 18.2702 15.1723 18.2702 12.8095C18.2702 10.4467 16.3575 8.53125 13.9979 8.53125C11.6384 8.53125 9.72559 10.4467 9.72559 12.8095C9.72559 15.1723 11.6384 17.0878 13.9979 17.0878Z" fill="#7DC9B1"/>
</svg>
