<svg width="253" height="189" viewBox="0 0 253 189" fill="none" xmlns="http://www.w3.org/2000/svg">
<path d="M253 165.895H0V166.021H253V165.895Z" fill="#E0E0E0"/>
<path d="M214.6 173.004H209.231V173.131H214.6V173.004Z" fill="#E0E0E0"/>
<path d="M205.517 173.064H183.683V173.191H205.517V173.064Z" fill="#E0E0E0"/>
<path d="M156.693 171.857H119.846V171.984H156.693V171.857Z" fill="#E0E0E0"/>
<path d="M98.6497 174.057H86.9561V174.183H98.6497V174.057Z" fill="#E0E0E0"/>
<path d="M59.6827 171.92H43.5818V172.047H59.6827V171.92Z" fill="#E0E0E0"/>
<path d="M77.5395 171.92H62.491V172.047H77.5395V171.92Z" fill="#E0E0E0"/>
<path d="M48.404 169.705H33.0367V169.832H48.404V169.705Z" fill="#E0E0E0"/>
<path d="M119.922 143.295H22.2184C21.453 143.294 20.7194 142.989 20.1787 142.446C19.6379 141.904 19.3342 141.169 19.3342 140.402V2.86794C19.3409 2.10587 19.6475 1.37721 20.1876 0.840223C20.7276 0.30324 21.4574 0.00130546 22.2184 0H119.922C120.688 0 121.423 0.304826 121.965 0.84742C122.507 1.39001 122.811 2.12593 122.811 2.89327V140.402C122.811 141.17 122.507 141.905 121.965 142.448C121.423 142.991 120.688 143.295 119.922 143.295ZM22.2184 0.101341C21.4866 0.102683 20.7852 0.394754 20.2681 0.913446C19.7511 1.43214 19.4607 2.13507 19.4607 2.86794V140.402C19.4607 141.135 19.7511 141.838 20.2681 142.357C20.7852 142.875 21.4866 143.167 22.2184 143.169H119.922C120.654 143.167 121.356 142.876 121.874 142.357C122.392 141.838 122.683 141.136 122.685 140.402V2.86794C122.683 2.1346 122.392 1.43168 121.874 0.913137C121.356 0.39459 120.654 0.10268 119.922 0.101341H22.2184Z" fill="#E0E0E0"/>
<path d="M229.375 143.295H131.666C130.9 143.294 130.166 142.989 129.625 142.447C129.083 141.904 128.778 141.169 128.777 140.402V2.86794C128.785 2.10541 129.093 1.37675 129.634 0.839906C130.174 0.303063 130.905 0.00129122 131.666 0H229.375C230.135 0.00263713 230.863 0.305161 231.402 0.842002C231.941 1.37884 232.247 2.10674 232.254 2.86794V140.402C232.254 141.168 231.951 141.902 231.411 142.444C230.872 142.987 230.139 143.293 229.375 143.295ZM131.666 0.101341C130.934 0.10268 130.232 0.39459 129.714 0.913137C129.196 1.43168 128.905 2.1346 128.903 2.86794V140.402C128.905 141.136 129.196 141.838 129.714 142.357C130.232 142.876 130.934 143.167 131.666 143.169H229.375C230.107 143.167 230.809 142.876 231.327 142.357C231.845 141.838 232.136 141.136 232.138 140.402V2.86794C232.136 2.1346 231.845 1.43168 231.327 0.913137C230.809 0.39459 230.107 0.10268 229.375 0.101341H131.666Z" fill="#E0E0E0"/>
<path d="M217.823 10.3711H34.1651C32.0636 10.3711 30.36 12.0771 30.36 14.1815V152.258C30.36 154.362 32.0636 156.068 34.1651 156.068H217.823C219.924 156.068 221.628 154.362 221.628 152.258V14.1815C221.628 12.0771 219.924 10.3711 217.823 10.3711Z" fill="#E0E0E0"/>
<path d="M218.835 10.3711H35.1771C33.0756 10.3711 31.372 12.0771 31.372 14.1815V152.258C31.372 154.362 33.0756 156.068 35.1771 156.068H218.835C220.936 156.068 222.64 154.362 222.64 152.258V14.1815C222.64 12.0771 220.936 10.3711 218.835 10.3711Z" fill="#EBEBEB"/>
<path d="M31.372 20.2227V152.259C31.376 153.268 31.7784 154.234 32.4912 154.947C33.2041 155.66 34.1696 156.062 35.1771 156.064H218.855C219.863 156.062 220.83 155.66 221.543 154.945C222.256 154.231 222.658 153.264 222.66 152.254V20.2227H31.372Z" fill="#E0E0E0"/>
<path d="M221.937 25.2891H32.0753V151.002H221.937V25.2891Z" fill="#FAFAFA"/>
<path d="M215.222 139.5H38.79C38.7734 139.498 38.758 139.491 38.7467 139.479C38.7354 139.466 38.7292 139.45 38.7292 139.434V33.4417C38.7292 33.4337 38.7308 33.4258 38.7339 33.4184C38.7369 33.411 38.7414 33.4043 38.747 33.3987C38.7527 33.393 38.7594 33.3885 38.7667 33.3855C38.7741 33.3824 38.782 33.3809 38.79 33.3809H215.222C215.238 33.3809 215.254 33.3873 215.265 33.3987C215.276 33.4101 215.283 33.4255 215.283 33.4417V139.434C215.283 139.442 215.282 139.451 215.28 139.459C215.277 139.466 215.273 139.474 215.267 139.48C215.261 139.486 215.254 139.491 215.247 139.494C215.239 139.498 215.23 139.5 215.222 139.5ZM38.8557 139.373H215.156V33.5075H38.8557V139.373Z" fill="#E0E0E0"/>
<path d="M39.721 17.6072C39.2706 17.6072 38.8304 17.4735 38.4559 17.2229C38.0815 16.9724 37.7896 16.6163 37.6173 16.1996C37.445 15.783 37.3999 15.3245 37.4877 14.8822C37.5756 14.4399 37.7924 14.0336 38.1109 13.7147C38.4293 13.3958 38.8351 13.1787 39.2768 13.0907C39.7184 13.0027 40.1763 13.0479 40.5923 13.2204C41.0084 13.393 41.364 13.6853 41.6142 14.0602C41.8644 14.4352 41.998 14.8761 41.998 15.327C41.9966 15.9314 41.7563 16.5106 41.3296 16.9379C40.9028 17.3652 40.3245 17.6059 39.721 17.6072ZM39.721 13.5536C39.3707 13.5536 39.0283 13.6576 38.7371 13.8525C38.4458 14.0473 38.2188 14.3243 38.0848 14.6484C37.9507 14.9724 37.9157 15.329 37.984 15.673C38.0523 16.017 38.221 16.333 38.4687 16.5811C38.7164 16.8291 39.0319 16.998 39.3755 17.0664C39.719 17.1348 40.0751 17.0997 40.3987 16.9655C40.7223 16.8313 40.9989 16.604 41.1935 16.3123C41.3881 16.0207 41.492 15.6778 41.492 15.327C41.492 14.8567 41.3054 14.4056 40.9733 14.073C40.6411 13.7404 40.1907 13.5536 39.721 13.5536Z" fill="#FAFAFA"/>
<path d="M46.891 17.6072C46.4407 17.6072 46.0004 17.4735 45.626 17.2229C45.2515 16.9724 44.9597 16.6163 44.7873 16.1996C44.615 15.783 44.5699 15.3245 44.6578 14.8822C44.7456 14.4399 44.9625 14.0336 45.2809 13.7147C45.5994 13.3958 46.0051 13.1787 46.4468 13.0907C46.8885 13.0027 47.3463 13.0479 47.7624 13.2204C48.1785 13.393 48.5341 13.6853 48.7843 14.0602C49.0345 14.4352 49.168 14.8761 49.168 15.327C49.1667 15.9314 48.9263 16.5106 48.4996 16.9379C48.0729 17.3652 47.4945 17.6059 46.891 17.6072ZM46.891 13.5536C46.5407 13.5536 46.1983 13.6576 45.9071 13.8525C45.6159 14.0473 45.3889 14.3243 45.2548 14.6484C45.1208 14.9724 45.0857 15.329 45.154 15.673C45.2224 16.017 45.391 16.333 45.6387 16.5811C45.8864 16.8291 46.202 16.998 46.5455 17.0664C46.889 17.1348 47.2451 17.0997 47.5687 16.9655C47.8924 16.8313 48.1689 16.604 48.3635 16.3123C48.5581 16.0207 48.662 15.6778 48.662 15.327C48.662 14.8567 48.4754 14.4056 48.1433 14.073C47.8112 13.7404 47.3607 13.5536 46.891 13.5536Z" fill="#FAFAFA"/>
<path d="M54.0661 17.6072C53.6158 17.6072 53.1755 17.4735 52.8011 17.2229C52.4266 16.9724 52.1348 16.6163 51.9624 16.1996C51.7901 15.783 51.745 15.3245 51.8329 14.8822C51.9207 14.4399 52.1376 14.0336 52.456 13.7147C52.7745 13.3958 53.1802 13.1787 53.6219 13.0907C54.0636 13.0027 54.5214 13.0479 54.9375 13.2204C55.3536 13.393 55.7092 13.6853 55.9594 14.0602C56.2096 14.4352 56.3431 14.8761 56.3431 15.327C56.3418 15.9314 56.1015 16.5106 55.6747 16.9379C55.248 17.3652 54.6696 17.6059 54.0661 17.6072ZM54.0661 13.5536C53.7159 13.5536 53.3734 13.6576 53.0822 13.8525C52.791 14.0473 52.564 14.3243 52.4299 14.6484C52.2959 14.9724 52.2608 15.329 52.3292 15.673C52.3975 16.017 52.5662 16.333 52.8138 16.5811C53.0615 16.8291 53.3771 16.998 53.7206 17.0664C54.0642 17.1348 54.4202 17.0997 54.7439 16.9655C55.0675 16.8313 55.3441 16.604 55.5387 16.3123C55.7333 16.0207 55.8371 15.6778 55.8371 15.327C55.8371 14.8567 55.6505 14.4056 55.3184 14.073C54.9863 13.7404 54.5358 13.5536 54.0661 13.5536Z" fill="#FAFAFA"/>
<path d="M222.64 19.9688H31.372V20.4755H222.64V19.9688Z" fill="#E0E0E0"/>
<path d="M135.907 37.7793H48.4091V127.081H135.907V37.7793Z" fill="#EBEBEB"/>
<path d="M210.891 37.7793H153.121V66.8285H210.891V37.7793Z" fill="#EBEBEB"/>
<path d="M163.944 55.2309C167.577 55.2309 170.522 52.2817 170.522 48.6438C170.522 45.0058 167.577 42.0566 163.944 42.0566C160.311 42.0566 157.366 45.0058 157.366 48.6438C157.366 52.2817 160.311 55.2309 163.944 55.2309Z" fill="#FAFAFA"/>
<path d="M205.097 42.0566H176.594V44.7574H205.097V42.0566Z" fill="#FAFAFA"/>
<path d="M195.093 47.0117H176.594V49.7124H195.093V47.0117Z" fill="#FAFAFA"/>
<path d="M210.891 77.6934H153.121V151.003H210.891V77.6934Z" fill="#EBEBEB"/>
<path d="M180.328 83.2207H155.686V107.897H180.328V83.2207Z" fill="#FAFAFA"/>
<path d="M180.521 111.033H155.878V135.71H180.521V111.033Z" fill="#FAFAFA"/>
<path d="M208.33 83.2207H183.688V96.3088H208.33V83.2207Z" fill="#FAFAFA"/>
<path d="M208.33 99.4512H183.688V124.128H208.33V99.4512Z" fill="#FAFAFA"/>
<path d="M180.521 138.664H155.878V151.002H180.521V138.664Z" fill="#FAFAFA"/>
<path d="M208.33 127.08H183.688V151.002H208.33V127.08Z" fill="#FAFAFA"/>
<path d="M126.5 185.776C180.684 185.776 224.608 183.208 224.608 180.041C224.608 176.873 180.684 174.305 126.5 174.305C72.3163 174.305 28.3917 176.873 28.3917 180.041C28.3917 183.208 72.3163 185.776 126.5 185.776Z" fill="#F5F5F5"/>
<path d="M137.263 154.133H45.2213C42.7229 154.133 40.6976 156.161 40.6976 158.663V175.105C40.6976 177.607 42.7229 179.635 45.2213 179.635H137.263C139.761 179.635 141.786 177.607 141.786 175.105V158.663C141.786 156.161 139.761 154.133 137.263 154.133Z" fill="#009969"/>
<path d="M138.33 155.203H46.2889C43.7906 155.203 41.7653 157.231 41.7653 159.733V176.176C41.7653 178.677 43.7906 180.705 46.2889 180.705H138.33C140.829 180.705 142.854 178.677 142.854 176.176V159.733C142.854 157.231 140.829 155.203 138.33 155.203Z" fill="#009969"/>
<path opacity="0.6" d="M138.33 155.203H46.2889C43.7906 155.203 41.7653 157.231 41.7653 159.733V176.176C41.7653 178.677 43.7906 180.705 46.2889 180.705H138.33C140.829 180.705 142.854 178.677 142.854 176.176V159.733C142.854 157.231 140.829 155.203 138.33 155.203Z" fill="#FAFAFA"/>
<path d="M139.398 156.271H47.3566C44.8582 156.271 42.8329 158.3 42.8329 160.801V177.249C42.8329 179.751 44.8582 181.779 47.3566 181.779H139.398C141.896 181.779 143.922 179.751 143.922 177.249V160.801C143.922 158.3 141.896 156.271 139.398 156.271Z" fill="#009969"/>
<path opacity="0.8" d="M139.398 156.271H47.3566C44.8582 156.271 42.8329 158.3 42.8329 160.801V177.249C42.8329 179.751 44.8582 181.779 47.3566 181.779H139.398C141.896 181.779 143.922 179.751 143.922 177.249V160.801C143.922 158.3 141.896 156.271 139.398 156.271Z" fill="#FAFAFA"/>
<path d="M119.209 160.584H70.0709C69.5372 160.584 69.1045 161.017 69.1045 161.552V163.477C69.1045 164.012 69.5372 164.445 70.0709 164.445H119.209C119.742 164.445 120.175 164.012 120.175 163.477V161.552C120.175 161.017 119.742 160.584 119.209 160.584Z" fill="#009969"/>
<path d="M92.0819 167.094H70.0709C69.5372 167.094 69.1045 167.527 69.1045 168.062V169.987C69.1045 170.522 69.5372 170.955 70.0709 170.955H92.0819C92.6157 170.955 93.0484 170.522 93.0484 169.987V168.062C93.0484 167.527 92.6157 167.094 92.0819 167.094Z" fill="#009969"/>
<path d="M113.334 167.094H96.4386C95.9049 167.094 95.4722 167.527 95.4722 168.062V169.987C95.4722 170.522 95.9049 170.955 96.4386 170.955H113.334C113.868 170.955 114.3 170.522 114.3 169.987V168.062C114.3 167.527 113.868 167.094 113.334 167.094Z" fill="#009969"/>
<path d="M129.03 173.605H69.6307C69.3401 173.605 69.1045 173.841 69.1045 174.132V174.533C69.1045 174.824 69.3401 175.06 69.6307 175.06H129.03C129.321 175.06 129.556 174.824 129.556 174.533V174.132C129.556 173.841 129.321 173.605 129.03 173.605Z" fill="#009969"/>
<path opacity="0.5" d="M129.03 173.605H69.6307C69.3401 173.605 69.1045 173.841 69.1045 174.132V174.533C69.1045 174.824 69.3401 175.06 69.6307 175.06H129.03C129.321 175.06 129.556 174.824 129.556 174.533V174.132C129.556 173.841 129.321 173.605 129.03 173.605Z" fill="#FAFAFA"/>
<path d="M63.9398 171.137C65.1001 166.256 62.0892 161.357 57.2148 160.195C52.3404 159.033 47.4482 162.048 46.2878 166.929C45.1275 171.811 48.1383 176.71 53.0128 177.872C57.8872 179.033 62.7794 176.018 63.9398 171.137Z" fill="#009969"/>
<path d="M62.6024 169.025C62.6024 170.508 62.1631 171.958 61.3403 173.191C60.5174 174.424 59.3478 175.386 57.9794 175.953C56.611 176.521 55.1052 176.669 53.6526 176.38C52.1999 176.091 50.8655 175.376 49.8182 174.328C48.7708 173.279 48.0576 171.943 47.7687 170.488C47.4797 169.033 47.628 167.525 48.1948 166.155C48.7616 164.785 49.7215 163.614 50.953 162.79C52.1845 161.966 53.6324 161.526 55.1136 161.526C56.0994 161.517 57.0772 161.705 57.9897 162.079C58.9023 162.452 59.7313 163.004 60.4285 163.703C61.1257 164.401 61.6769 165.231 62.0502 166.145C62.4234 167.059 62.6111 168.038 62.6024 169.025Z" fill="#FAFAFA"/>
<path d="M61.6966 172.597C61.053 173.781 60.1023 174.77 58.9447 175.459C57.787 176.148 56.4653 176.511 55.1186 176.511C53.772 176.511 52.4503 176.148 51.2926 175.459C50.135 174.77 49.1843 173.781 48.5406 172.597C50.489 171.297 52.7777 170.604 55.1186 170.604C57.4596 170.604 59.7483 171.297 61.6966 172.597Z" fill="#009969"/>
<path opacity="0.7" d="M61.6966 172.597C61.053 173.781 60.1023 174.77 58.9447 175.459C57.787 176.148 56.4653 176.511 55.1186 176.511C53.772 176.511 52.4503 176.148 51.2926 175.459C50.135 174.77 49.1843 173.781 48.5406 172.597C50.489 171.297 52.7777 170.604 55.1186 170.604C57.4596 170.604 59.7483 171.297 61.6966 172.597Z" fill="#FAFAFA"/>
<path d="M55.1136 169.801C56.9552 169.801 58.4481 168.306 58.4481 166.462C58.4481 164.618 56.9552 163.123 55.1136 163.123C53.272 163.123 51.7791 164.618 51.7791 166.462C51.7791 168.306 53.272 169.801 55.1136 169.801Z" fill="#009969"/>
<path opacity="0.7" d="M55.1136 169.801C56.9552 169.801 58.4481 168.306 58.4481 166.462C58.4481 164.618 56.9552 163.123 55.1136 163.123C53.272 163.123 51.7791 164.618 51.7791 166.462C51.7791 168.306 53.272 169.801 55.1136 169.801Z" fill="#FAFAFA"/>
<path d="M137.263 124.623H45.2213C42.7229 124.623 40.6976 126.651 40.6976 129.153V145.595C40.6976 148.097 42.7229 150.125 45.2213 150.125H137.263C139.761 150.125 141.786 148.097 141.786 145.595V129.153C141.786 126.651 139.761 124.623 137.263 124.623Z" fill="#009969"/>
<path d="M138.33 125.691H46.289C43.7906 125.691 41.7653 127.72 41.7653 130.221V146.669C41.7653 149.171 43.7906 151.199 46.289 151.199H138.33C140.829 151.199 142.854 149.171 142.854 146.669V130.221C142.854 127.72 140.829 125.691 138.33 125.691Z" fill="#009969"/>
<path opacity="0.6" d="M138.33 125.691H46.289C43.7906 125.691 41.7653 127.72 41.7653 130.221V146.669C41.7653 149.171 43.7906 151.199 46.289 151.199H138.33C140.829 151.199 142.854 149.171 142.854 146.669V130.221C142.854 127.72 140.829 125.691 138.33 125.691Z" fill="#FAFAFA"/>
<path d="M139.398 126.762H47.3566C44.8582 126.762 42.8329 128.79 42.8329 131.292V147.734C42.8329 150.236 44.8582 152.264 47.3566 152.264H139.398C141.896 152.264 143.922 150.236 143.922 147.734V131.292C143.922 128.79 141.896 126.762 139.398 126.762Z" fill="#009969"/>
<path opacity="0.8" d="M139.398 126.762H47.3566C44.8582 126.762 42.8329 128.79 42.8329 131.292V147.734C42.8329 150.236 44.8582 152.264 47.3566 152.264H139.398C141.896 152.264 143.922 150.236 143.922 147.734V131.292C143.922 128.79 141.896 126.762 139.398 126.762Z" fill="#FAFAFA"/>
<path d="M84.7146 131.072H70.0709C69.5372 131.072 69.1045 131.506 69.1045 132.04V133.966C69.1045 134.5 69.5372 134.933 70.0709 134.933H84.7146C85.2483 134.933 85.681 134.5 85.681 133.966V132.04C85.681 131.506 85.2483 131.072 84.7146 131.072Z" fill="#009969"/>
<path d="M100.107 131.072H88.798C88.2642 131.072 87.8315 131.506 87.8315 132.04V133.966C87.8315 134.5 88.2642 134.933 88.798 134.933H100.107C100.641 134.933 101.074 134.5 101.074 133.966V132.04C101.074 131.506 100.641 131.072 100.107 131.072Z" fill="#009969"/>
<path d="M121.486 137.584H70.0709C69.5372 137.584 69.1045 138.017 69.1045 138.552V140.477C69.1045 141.012 69.5372 141.445 70.0709 141.445H121.486C122.019 141.445 122.452 141.012 122.452 140.477V138.552C122.452 138.017 122.019 137.584 121.486 137.584Z" fill="#009969"/>
<path d="M105.481 144.096H69.6307C69.3401 144.096 69.1045 144.332 69.1045 144.623V145.023C69.1045 145.314 69.3401 145.55 69.6307 145.55H105.481C105.771 145.55 106.007 145.314 106.007 145.023V144.623C106.007 144.332 105.771 144.096 105.481 144.096Z" fill="#009969"/>
<path opacity="0.5" d="M105.481 144.096H69.6307C69.3401 144.096 69.1045 144.332 69.1045 144.623V145.023C69.1045 145.314 69.3401 145.55 69.6307 145.55H105.481C105.771 145.55 106.007 145.314 106.007 145.023V144.623C106.007 144.332 105.771 144.096 105.481 144.096Z" fill="#FAFAFA"/>
<path d="M63.9413 141.629C65.1017 136.748 62.0908 131.849 57.2164 130.687C52.3419 129.525 47.4498 132.54 46.2894 137.422C45.1291 142.303 48.1399 147.202 53.0144 148.364C57.8888 149.526 62.781 146.511 63.9413 141.629Z" fill="#009969"/>
<path d="M62.6024 139.515C62.6024 140.998 62.1631 142.448 61.3403 143.681C60.5174 144.915 59.3478 145.876 57.9794 146.443C56.611 147.011 55.1052 147.16 53.6526 146.87C52.1999 146.581 50.8655 145.867 49.8182 144.818C48.7708 143.769 48.0576 142.433 47.7687 140.978C47.4797 139.523 47.628 138.016 48.1948 136.645C48.7616 135.275 49.7215 134.104 50.953 133.28C52.1845 132.456 53.6324 132.016 55.1136 132.016C56.0994 132.007 57.0772 132.195 57.9897 132.569C58.9023 132.943 59.7313 133.495 60.4285 134.193C61.1257 134.891 61.6769 135.721 62.0502 136.635C62.4234 137.549 62.6111 138.528 62.6024 139.515Z" fill="#FAFAFA"/>
<path d="M61.6966 143.087C61.053 144.271 60.1023 145.26 58.9447 145.949C57.787 146.638 56.4653 147.002 55.1186 147.002C53.772 147.002 52.4503 146.638 51.2926 145.949C50.135 145.26 49.1843 144.271 48.5406 143.087C50.489 141.787 52.7777 141.094 55.1186 141.094C57.4596 141.094 59.7483 141.787 61.6966 143.087Z" fill="#009969"/>
<path opacity="0.7" d="M61.6966 143.087C61.053 144.271 60.1023 145.26 58.9447 145.949C57.787 146.638 56.4653 147.002 55.1186 147.002C53.772 147.002 52.4503 146.638 51.2926 145.949C50.135 145.26 49.1843 144.271 48.5406 143.087C50.489 141.787 52.7777 141.094 55.1186 141.094C57.4596 141.094 59.7483 141.787 61.6966 143.087Z" fill="#FAFAFA"/>
<path d="M55.1136 140.29C56.9552 140.29 58.4481 138.795 58.4481 136.95C58.4481 135.106 56.9552 133.611 55.1136 133.611C53.272 133.611 51.7791 135.106 51.7791 136.95C51.7791 138.795 53.272 140.29 55.1136 140.29Z" fill="#009969"/>
<path opacity="0.7" d="M55.1136 140.29C56.9552 140.29 58.4481 138.795 58.4481 136.95C58.4481 135.106 56.9552 133.611 55.1136 133.611C53.272 133.611 51.7791 135.106 51.7791 136.95C51.7791 138.795 53.272 140.29 55.1136 140.29Z" fill="#FAFAFA"/>
<path d="M137.263 95.1133H45.2213C42.7229 95.1133 40.6976 97.1414 40.6976 99.6432V116.091C40.6976 118.593 42.7229 120.621 45.2213 120.621H137.263C139.761 120.621 141.786 118.593 141.786 116.091V99.6432C141.786 97.1414 139.761 95.1133 137.263 95.1133Z" fill="#009969"/>
<path d="M138.33 96.1816H46.289C43.7906 96.1816 41.7653 98.2097 41.7653 100.712V117.154C41.7653 119.656 43.7906 121.684 46.289 121.684H138.33C140.829 121.684 142.854 119.656 142.854 117.154V100.712C142.854 98.2097 140.829 96.1816 138.33 96.1816Z" fill="#009969"/>
<path opacity="0.6" d="M138.33 96.1816H46.289C43.7906 96.1816 41.7653 98.2097 41.7653 100.712V117.154C41.7653 119.656 43.7906 121.684 46.289 121.684H138.33C140.829 121.684 142.854 119.656 142.854 117.154V100.712C142.854 98.2097 140.829 96.1816 138.33 96.1816Z" fill="#FAFAFA"/>
<path d="M139.398 97.25H47.3566C44.8582 97.25 42.8329 99.2781 42.8329 101.78V118.227C42.8329 120.729 44.8582 122.757 47.3566 122.757H139.398C141.896 122.757 143.922 120.729 143.922 118.227V101.78C143.922 99.2781 141.896 97.25 139.398 97.25Z" fill="#009969"/>
<path opacity="0.8" d="M139.398 97.25H47.3566C44.8582 97.25 42.8329 99.2781 42.8329 101.78V118.227C42.8329 120.729 44.8582 122.757 47.3566 122.757H139.398C141.896 122.757 143.922 120.729 143.922 118.227V101.78C143.922 99.2781 141.896 97.25 139.398 97.25Z" fill="#FAFAFA"/>
<path d="M118.844 101.562H70.0709C69.5372 101.562 69.1045 101.996 69.1045 102.53V104.456C69.1045 104.99 69.5372 105.424 70.0709 105.424H118.844C119.378 105.424 119.811 104.99 119.811 104.456V102.53C119.811 101.996 119.378 101.562 118.844 101.562Z" fill="#009969"/>
<path d="M102.425 108.074H70.0709C69.5372 108.074 69.1045 108.508 69.1045 109.042V110.967C69.1045 111.502 69.5372 111.935 70.0709 111.935H102.425C102.958 111.935 103.391 111.502 103.391 110.967V109.042C103.391 108.508 102.958 108.074 102.425 108.074Z" fill="#009969"/>
<path d="M110.227 108.074H107.221C106.688 108.074 106.255 108.508 106.255 109.042V110.967C106.255 111.502 106.688 111.935 107.221 111.935H110.227C110.761 111.935 111.194 111.502 111.194 110.967V109.042C111.194 108.508 110.761 108.074 110.227 108.074Z" fill="#009969"/>
<path d="M95.7251 114.586H69.6307C69.3401 114.586 69.1045 114.822 69.1045 115.113V115.513C69.1045 115.804 69.3401 116.04 69.6307 116.04H95.7251C96.0158 116.04 96.2514 115.804 96.2514 115.513V115.113C96.2514 114.822 96.0158 114.586 95.7251 114.586Z" fill="#009969"/>
<path opacity="0.5" d="M95.7251 114.586H69.6307C69.3401 114.586 69.1045 114.822 69.1045 115.113V115.513C69.1045 115.804 69.3401 116.04 69.6307 116.04H95.7251C96.0158 116.04 96.2514 115.804 96.2514 115.513V115.113C96.2514 114.822 96.0158 114.586 95.7251 114.586Z" fill="#FAFAFA"/>
<path d="M129.46 114.586H99.5404C99.2498 114.586 99.0142 114.822 99.0142 115.113V115.513C99.0142 115.804 99.2498 116.04 99.5404 116.04H129.46C129.751 116.04 129.986 115.804 129.986 115.513V115.113C129.986 114.822 129.751 114.586 129.46 114.586Z" fill="#009969"/>
<path opacity="0.5" d="M129.46 114.586H99.5404C99.2498 114.586 99.0142 114.822 99.0142 115.113V115.513C99.0142 115.804 99.2498 116.04 99.5404 116.04H129.46C129.751 116.04 129.986 115.804 129.986 115.513V115.113C129.986 114.822 129.751 114.586 129.46 114.586Z" fill="#FAFAFA"/>
<path d="M61.5298 116.426C65.0728 112.878 65.0728 107.126 61.5298 103.578C57.9867 100.03 52.2423 100.03 48.6992 103.578C45.1562 107.126 45.1562 112.878 48.6992 116.426C52.2423 119.974 57.9867 119.974 61.5298 116.426Z" fill="#009969"/>
<path d="M62.6024 110.005C62.6024 111.489 62.1631 112.938 61.3403 114.172C60.5174 115.405 59.3478 116.366 57.9794 116.934C56.611 117.501 55.1052 117.65 53.6526 117.36C52.1999 117.071 50.8655 116.357 49.8182 115.308C48.7708 114.259 48.0576 112.923 47.7687 111.468C47.4797 110.014 47.628 108.506 48.1948 107.136C48.7616 105.765 49.7215 104.594 50.953 103.77C52.1845 102.946 53.6324 102.506 55.1136 102.506C56.0994 102.497 57.0772 102.685 57.9897 103.059C58.9023 103.433 59.7313 103.985 60.4285 104.683C61.1257 105.381 61.6769 106.211 62.0502 107.125C62.4234 108.039 62.6111 109.018 62.6024 110.005Z" fill="#FAFAFA"/>
<path d="M61.6966 113.577C61.053 114.761 60.1023 115.75 58.9447 116.439C57.787 117.128 56.4653 117.492 55.1186 117.492C53.772 117.492 52.4503 117.128 51.2926 116.439C50.135 115.75 49.1843 114.761 48.5406 113.577C50.489 112.277 52.7777 111.584 55.1186 111.584C57.4596 111.584 59.7483 112.277 61.6966 113.577Z" fill="#009969"/>
<path opacity="0.7" d="M61.6966 113.577C61.053 114.761 60.1023 115.75 58.9447 116.439C57.787 117.128 56.4653 117.492 55.1186 117.492C53.772 117.492 52.4503 117.128 51.2926 116.439C50.135 115.75 49.1843 114.761 48.5406 113.577C50.489 112.277 52.7777 111.584 55.1186 111.584C57.4596 111.584 59.7483 112.277 61.6966 113.577Z" fill="#FAFAFA"/>
<path d="M58.4481 107.42C58.4471 108.081 58.2507 108.726 57.8837 109.274C57.5167 109.823 56.9956 110.25 56.3862 110.502C55.7768 110.754 55.1065 110.819 54.46 110.69C53.8135 110.56 53.2198 110.242 52.7539 109.775C52.2881 109.308 51.971 108.713 51.8428 108.065C51.7145 107.417 51.7808 106.746 52.0334 106.136C52.2859 105.526 52.7133 105.005 53.2615 104.639C53.8098 104.272 54.4543 104.076 55.1136 104.076C55.5519 104.076 55.9859 104.163 56.3908 104.331C56.7957 104.499 57.1636 104.745 57.4733 105.056C57.783 105.367 58.0285 105.735 58.1958 106.141C58.363 106.547 58.4488 106.981 58.4481 107.42Z" fill="#009969"/>
<path opacity="0.7" d="M58.4481 107.42C58.4471 108.081 58.2507 108.726 57.8837 109.274C57.5167 109.823 56.9956 110.25 56.3862 110.502C55.7768 110.754 55.1065 110.819 54.46 110.69C53.8135 110.56 53.2198 110.242 52.7539 109.775C52.2881 109.308 51.971 108.713 51.8428 108.065C51.7145 107.417 51.7808 106.746 52.0334 106.136C52.2859 105.526 52.7133 105.005 53.2615 104.639C53.8098 104.272 54.4543 104.076 55.1136 104.076C55.5519 104.076 55.9859 104.163 56.3908 104.331C56.7957 104.499 57.1636 104.745 57.4733 105.056C57.783 105.367 58.0285 105.735 58.1958 106.141C58.363 106.547 58.4488 106.981 58.4481 107.42Z" fill="#FAFAFA"/>
<path d="M65.9521 34.3184H63.6447V34.8251H65.9521V34.3184Z" fill="#009969"/>
<path d="M59.9914 34.3184H54.5367V34.8251H59.9914V34.3184Z" fill="#009969"/>
<path d="M138.33 37.1621H46.2889C43.7906 37.1621 41.7653 39.1902 41.7653 41.692V58.1396C41.7653 60.6414 43.7906 62.6695 46.2889 62.6695H138.33C140.829 62.6695 142.854 60.6414 142.854 58.1396V41.692C142.854 39.1902 140.829 37.1621 138.33 37.1621Z" fill="#009969"/>
<path d="M139.398 38.2305H47.3566C44.8582 38.2305 42.8329 40.2586 42.8329 42.7604V59.208C42.8329 61.7098 44.8582 63.7379 47.3566 63.7379H139.398C141.896 63.7379 143.922 61.7098 143.922 59.208V42.7604C143.922 40.2586 141.896 38.2305 139.398 38.2305Z" fill="#009969"/>
<path d="M86.0555 55.5645H69.6307C69.3401 55.5645 69.1045 55.8004 69.1045 56.0914V56.4917C69.1045 56.7828 69.3401 57.0187 69.6307 57.0187H86.0555C86.3461 57.0187 86.5817 56.7828 86.5817 56.4917V56.0914C86.5817 55.8004 86.3461 55.5645 86.0555 55.5645Z" fill="#009969"/>
<path d="M61.6966 54.5555C61.053 55.74 60.1023 56.7288 58.9447 57.4178C57.787 58.1067 56.4653 58.4703 55.1186 58.4703C53.772 58.4703 52.4503 58.1067 51.2926 57.4178C50.135 56.7288 49.1843 55.74 48.5406 54.5555C50.489 53.2559 52.7777 52.5625 55.1186 52.5625C57.4596 52.5625 59.7483 53.2559 61.6966 54.5555Z" fill="#009969"/>
<path d="M55.1136 51.7545C56.9552 51.7545 58.4481 50.2595 58.4481 48.4153C58.4481 46.5712 56.9552 45.0762 55.1136 45.0762C53.272 45.0762 51.7791 46.5712 51.7791 48.4153C51.7791 50.2595 53.272 51.7545 55.1136 51.7545Z" fill="#009969"/>
<path d="M137.263 36.0918H45.2213C42.7229 36.0918 40.6976 38.1199 40.6976 40.6217V57.0693C40.6976 59.5711 42.7229 61.5992 45.2213 61.5992H137.263C139.761 61.5992 141.786 59.5711 141.786 57.0693V40.6217C141.786 38.1199 139.761 36.0918 137.263 36.0918Z" fill="#009969"/>
<path opacity="0.6" d="M138.33 37.1621H46.2889C43.7906 37.1621 41.7653 39.1902 41.7653 41.692V58.1396C41.7653 60.6414 43.7906 62.6695 46.2889 62.6695H138.33C140.829 62.6695 142.854 60.6414 142.854 58.1396V41.692C142.854 39.1902 140.829 37.1621 138.33 37.1621Z" fill="#FAFAFA"/>
<path opacity="0.8" d="M139.398 38.2305H47.3566C44.8582 38.2305 42.8329 40.2586 42.8329 42.7604V59.208C42.8329 61.7098 44.8582 63.7379 47.3566 63.7379H139.398C141.896 63.7379 143.922 61.7098 143.922 59.208V42.7604C143.922 40.2586 141.896 38.2305 139.398 38.2305Z" fill="#C8E7DD"/>
<path d="M114.822 42.543H70.0709C69.5372 42.543 69.1045 42.9763 69.1045 43.5108V45.4362C69.1045 45.9707 69.5372 46.404 70.0709 46.404H114.822C115.355 46.404 115.788 45.9707 115.788 45.4362V43.5108C115.788 42.9763 115.355 42.543 114.822 42.543Z" fill="#009969"/>
<path d="M130.255 49.0527H70.0709C69.5372 49.0527 69.1045 49.486 69.1045 50.0205V51.946C69.1045 52.4805 69.5372 52.9138 70.0709 52.9138H130.255C130.788 52.9138 131.221 52.4805 131.221 51.946V50.0205C131.221 49.486 130.788 49.0527 130.255 49.0527Z" fill="#009969"/>
<path opacity="0.5" d="M86.0555 55.5645H69.6307C69.3401 55.5645 69.1045 55.8004 69.1045 56.0914V56.4917C69.1045 56.7828 69.3401 57.0187 69.6307 57.0187H86.0555C86.3461 57.0187 86.5817 56.7828 86.5817 56.4917V56.0914C86.5817 55.8004 86.3461 55.5645 86.0555 55.5645Z" fill="#FAFAFA"/>
<path d="M63.9411 53.0923C65.1015 48.2111 62.0906 43.3121 57.2162 42.1502C52.3418 40.9882 47.4496 44.0032 46.2892 48.8845C45.1289 53.7657 48.1397 58.6646 53.0142 59.8266C57.8886 60.9885 62.7808 57.9735 63.9411 53.0923Z" fill="#009969"/>
<path d="M62.6024 50.9836C62.6024 52.4668 62.1632 53.9167 61.3403 55.15C60.5174 56.3832 59.3478 57.3444 57.9794 57.912C56.611 58.4796 55.1053 58.6281 53.6526 58.3388C52.1999 58.0494 50.8655 57.3352 49.8182 56.2864C48.7708 55.2376 48.0576 53.9014 47.7687 52.4467C47.4797 50.992 47.628 49.4841 48.1948 48.1138C48.7616 46.7435 49.7215 45.5723 50.953 44.7483C52.1845 43.9243 53.6324 43.4845 55.1136 43.4845C56.0983 43.4798 57.0742 43.6705 57.9849 44.0457C58.8956 44.4209 59.7231 44.9731 60.4194 45.6704C61.1157 46.3678 61.6672 47.1963 62.0419 48.1083C62.4165 49.0202 62.6071 49.9975 62.6024 50.9836Z" fill="#FAFAFA"/>
<path opacity="0.7" d="M61.6966 54.5555C61.053 55.74 60.1023 56.7288 58.9447 57.4178C57.787 58.1067 56.4653 58.4703 55.1186 58.4703C53.772 58.4703 52.4503 58.1067 51.2926 57.4178C50.135 56.7288 49.1843 55.74 48.5406 54.5555C50.489 53.2559 52.7777 52.5625 55.1186 52.5625C57.4596 52.5625 59.7483 53.2559 61.6966 54.5555Z" fill="#7DC9B1"/>
<path opacity="0.7" d="M55.1136 51.7545C56.9552 51.7545 58.4481 50.2595 58.4481 48.4153C58.4481 46.5712 56.9552 45.0762 55.1136 45.0762C53.272 45.0762 51.7791 46.5712 51.7791 48.4153C51.7791 50.2595 53.272 51.7545 55.1136 51.7545Z" fill="#7DC9B1"/>
<path d="M201.96 104.436L198.64 106.163L202.359 109.057C202.359 109.057 204.859 106.959 203.877 105.51L201.96 104.436Z" fill="#E4897B"/>
<path d="M196.743 109.686L199.916 111.895L202.36 109.057L198.64 106.164L196.743 109.686Z" fill="#E4897B"/>
<path d="M203.245 75.7012C203.7 76.2991 204.09 76.8362 204.485 77.4189C204.879 78.0016 205.254 78.564 205.628 79.1417C206.367 80.3071 207.07 81.5029 207.718 82.7291C208.382 83.968 208.984 85.2398 209.519 86.5395L209.919 87.5529L210.278 88.5663C210.405 88.9008 210.501 89.2555 210.607 89.6051L210.764 90.1118L210.8 90.2435L210.86 90.4614C210.899 90.6185 210.929 90.7775 210.951 90.9377C211.069 91.8978 211 92.8717 210.749 93.8057C210.562 94.5543 210.324 95.2891 210.036 96.0047C209.501 97.3168 208.879 98.5915 208.174 99.8202C206.822 102.199 205.284 104.466 203.574 106.6L201.246 105.08C202.365 102.744 203.458 100.337 204.414 97.986C204.882 96.838 205.289 95.6658 205.633 94.4745C205.792 93.9399 205.912 93.3947 205.993 92.8429C206.059 92.4845 206.059 92.117 205.993 91.7586L205.952 91.6572L205.785 91.2367C205.679 90.958 205.578 90.6844 205.446 90.4057L205.082 89.5747L204.682 88.7386C204.129 87.634 203.535 86.5362 202.901 85.4451C202.258 84.3607 201.595 83.2764 200.877 82.2123C200.158 81.1482 199.445 80.0689 198.767 79.091L203.245 75.7012Z" fill="#E4897B"/>
<path d="M210.157 83.4784L201.823 89.3308C201.823 89.3308 201.317 88.2363 200.614 86.6402C200.042 85.3684 199.329 83.7824 198.62 82.1812C198.332 81.5326 198.048 80.8841 197.77 80.2507C195.842 75.8525 198.094 72.6856 202.051 73.2734C205.537 73.7953 210.157 83.4784 210.157 83.4784Z" fill="#263238"/>
<path d="M201.014 77.3887C201.175 78.9594 201.191 83.8187 200.614 86.6411C200.042 85.3692 199.329 83.7833 198.62 82.1821L201.014 77.3887Z" fill="#009969"/>
<path opacity="0.8" d="M201.014 77.3887C201.175 78.9594 201.191 83.8187 200.614 86.6411C200.042 85.3692 199.329 83.7833 198.62 82.1821L201.014 77.3887Z" fill="#009969"/>
<g opacity="0.8">
<path d="M201.014 77.3887C201.175 78.9594 201.191 83.8187 200.614 86.6411C200.042 85.3692 199.329 83.7833 198.62 82.1821L201.014 77.3887Z" fill="black"/>
<path opacity="0.8" d="M201.014 77.3887C201.175 78.9594 201.191 83.8187 200.614 86.6411C200.042 85.3692 199.329 83.7833 198.62 82.1821L201.014 77.3887Z" fill="black"/>
</g>
<path d="M213.481 117.235L124.537 93.5414C123.382 93.2253 122.397 92.4664 121.797 91.4289C121.196 90.3914 121.028 89.1588 121.329 87.9981L125.549 72.1079C125.868 70.954 126.627 69.9719 127.662 69.3737C128.698 68.7755 129.927 68.6091 131.084 68.9106L220.029 92.5989C221.185 92.9149 222.171 93.6746 222.771 94.7133C223.372 95.752 223.539 96.9858 223.237 98.1473L219.017 114.007C218.705 115.167 217.948 116.156 216.912 116.76C215.875 117.365 214.643 117.535 213.481 117.235Z" fill="#009969"/>
<path opacity="0.8" d="M213.481 117.235L124.537 93.5414C123.382 93.2253 122.397 92.4664 121.797 91.4289C121.196 90.3914 121.028 89.1588 121.329 87.9981L125.549 72.1079C125.868 70.954 126.627 69.9719 127.662 69.3737C128.698 68.7755 129.927 68.6091 131.084 68.9106L220.029 92.5989C221.185 92.9149 222.171 93.6746 222.771 94.7133C223.372 95.752 223.539 96.9858 223.237 98.1473L219.017 114.007C218.705 115.167 217.948 116.156 216.912 116.76C215.875 117.365 214.643 117.535 213.481 117.235Z" fill="#FAFAFA"/>
<path d="M214.235 118.567L125.296 94.8482C124.14 94.5332 123.154 93.7748 122.553 92.7371C121.951 91.6995 121.782 90.4663 122.083 89.3049L126.308 73.4198C126.622 72.2621 127.38 71.2752 128.416 70.6729C129.452 70.0706 130.684 69.9015 131.843 70.2022L220.783 93.8956C221.939 94.2106 222.925 94.9691 223.526 96.0067C224.127 97.0443 224.296 98.2775 223.996 99.4389L219.776 115.329C219.466 116.492 218.709 117.484 217.672 118.091C216.634 118.697 215.399 118.868 214.235 118.567Z" fill="#009969"/>
<path opacity="0.4" d="M214.235 118.567L125.296 94.8482C124.14 94.5332 123.154 93.7748 122.553 92.7371C121.951 91.6995 121.782 90.4663 122.083 89.3049L126.308 73.4198C126.622 72.2621 127.38 71.2752 128.416 70.6729C129.452 70.0706 130.684 69.9015 131.843 70.2022L220.783 93.8956C221.939 94.2106 222.925 94.9691 223.526 96.0067C224.127 97.0443 224.296 98.2775 223.996 99.4389L219.776 115.329C219.466 116.492 218.709 117.484 217.672 118.091C216.634 118.697 215.399 118.868 214.235 118.567Z" fill="#FAFAFA"/>
<path d="M214.994 119.856L126.055 96.1623C124.899 95.8473 123.913 95.0888 123.312 94.0512C122.71 93.0136 122.541 91.7804 122.842 90.6189L127.062 74.7288C127.377 73.5709 128.136 72.5843 129.173 71.9829C130.21 71.3816 131.443 71.2139 132.602 71.5163L221.542 95.2046C222.705 95.5193 223.696 96.2825 224.298 97.3271C224.9 98.3717 225.064 99.6126 224.755 100.778L220.53 116.663C220.21 117.816 219.45 118.797 218.415 119.394C217.379 119.992 216.151 120.157 214.994 119.856Z" fill="#009969"/>
<path opacity="0.2" d="M214.994 119.856L126.055 96.1623C124.899 95.8473 123.913 95.0888 123.312 94.0512C122.71 93.0136 122.541 91.7804 122.842 90.6189L127.062 74.7288C127.377 73.5709 128.136 72.5843 129.173 71.9829C130.21 71.3816 131.443 71.2139 132.602 71.5163L221.542 95.2046C222.705 95.5193 223.696 96.2825 224.298 97.3271C224.9 98.3717 225.064 99.6126 224.755 100.778L220.53 116.663C220.21 117.816 219.45 118.797 218.415 119.394C217.379 119.992 216.151 120.157 214.994 119.856Z" fill="black"/>
<path d="M209.984 96.6059L153.433 81.5379C152.917 81.4005 152.387 81.7078 152.25 82.2243L151.756 84.0851C151.618 84.6016 151.925 85.1317 152.441 85.2692L208.992 100.337C209.508 100.475 210.038 100.167 210.175 99.6508L210.669 97.79C210.807 97.2735 210.5 96.7434 209.984 96.6059Z" fill="#009969"/>
<path opacity="0.7" d="M209.984 96.6059L153.433 81.5379C152.917 81.4005 152.387 81.7078 152.25 82.2243L151.756 84.0851C151.618 84.6016 151.925 85.1317 152.441 85.2692L208.992 100.337C209.508 100.475 210.038 100.167 210.175 99.6508L210.669 97.79C210.807 97.2735 210.5 96.7434 209.984 96.6059Z" fill="#FAFAFA"/>
<path d="M187.485 97.3447L151.764 87.827C151.248 87.6895 150.719 87.9969 150.582 88.5134L150.087 90.3741C149.95 90.8906 150.257 91.4208 150.773 91.5582L186.493 101.076C187.009 101.213 187.538 100.906 187.676 100.389L188.17 98.5288C188.307 98.0122 188 97.4821 187.485 97.3447Z" fill="#009969"/>
<path opacity="0.7" d="M187.485 97.3447L151.764 87.827C151.248 87.6895 150.719 87.9969 150.582 88.5134L150.087 90.3741C149.95 90.8906 150.257 91.4208 150.773 91.5582L186.493 101.076C187.009 101.213 187.538 100.906 187.676 100.389L188.17 98.5288C188.307 98.0122 188 97.4821 187.485 97.3447Z" fill="#FAFAFA"/>
<path d="M201.788 107.89L149.667 94.0027C149.386 93.9279 149.097 94.0952 149.023 94.3764L148.92 94.7633C148.845 95.0445 149.012 95.3332 149.293 95.408L201.414 109.296C201.695 109.37 201.983 109.203 202.058 108.922L202.161 108.535C202.236 108.254 202.069 107.965 201.788 107.89Z" fill="#FAFAFA"/>
<path d="M143.911 90.6494C146.767 86.535 145.751 80.8811 141.643 78.0211C137.534 75.161 131.888 76.1779 129.032 80.2923C126.176 84.4068 127.191 90.0607 131.3 92.9207C135.409 95.7808 141.055 94.7639 143.911 90.6494Z" fill="#009969"/>
<path d="M144.058 87.7601C143.677 89.1933 142.88 90.4812 141.769 91.461C140.657 92.4408 139.28 93.0684 137.812 93.2645C136.344 93.4607 134.851 93.2166 133.521 92.563C132.192 91.9094 131.086 90.8757 130.343 89.5927C129.6 88.3096 129.254 86.8348 129.348 85.3547C129.442 83.8746 129.972 82.4557 130.871 81.2774C131.771 80.099 132.999 79.2142 134.4 78.7347C135.802 78.2553 137.314 78.2027 138.745 78.5837C139.699 78.8313 140.594 79.2661 141.379 79.8629C142.164 80.4597 142.822 81.2066 143.316 82.0602C143.811 82.9138 144.131 83.8572 144.258 84.8357C144.385 85.8141 144.317 86.8081 144.058 87.7601Z" fill="#FAFAFA"/>
<path d="M142.267 90.9777C141.342 91.963 140.168 92.6792 138.87 93.0506C137.571 93.4219 136.196 93.4345 134.891 93.087C133.586 92.7395 132.399 92.0449 131.457 91.0768C130.514 90.1086 129.85 88.9031 129.536 87.5879C131.755 86.8326 134.147 86.7515 136.411 87.3547C138.676 87.9579 140.711 89.2185 142.262 90.9777H142.267Z" fill="#009969"/>
<path opacity="0.7" d="M142.267 90.9777C141.342 91.963 140.168 92.6792 138.87 93.0506C137.571 93.4219 136.196 93.4345 134.891 93.087C133.586 92.7395 132.399 92.0449 131.457 91.0768C130.514 90.1086 129.85 88.9031 129.536 87.5879C131.755 86.8326 134.147 86.7515 136.411 87.3547C138.676 87.9579 140.711 89.2185 142.262 90.9777H142.267Z" fill="#FAFAFA"/>
<path d="M140.703 84.214C140.533 84.8518 140.178 85.4249 139.683 85.8607C139.188 86.2966 138.575 86.5757 137.922 86.6628C137.268 86.7499 136.604 86.6411 136.012 86.3501C135.42 86.0592 134.928 85.5991 134.597 85.028C134.266 84.4569 134.112 83.8005 134.154 83.1417C134.195 82.4829 134.431 81.8512 134.831 81.3265C135.231 80.8018 135.778 80.4076 136.401 80.1938C137.025 79.9799 137.698 79.9559 138.335 80.1249C138.759 80.2373 139.157 80.4323 139.505 80.6988C139.854 80.9652 140.146 81.2979 140.366 81.6777C140.586 82.0575 140.729 82.477 140.787 82.9122C140.845 83.3475 140.816 83.7898 140.703 84.214Z" fill="#009969"/>
<path opacity="0.7" d="M140.703 84.214C140.533 84.8518 140.178 85.4249 139.683 85.8607C139.188 86.2966 138.575 86.5757 137.922 86.6628C137.268 86.7499 136.604 86.6411 136.012 86.3501C135.42 86.0592 134.928 85.5991 134.597 85.028C134.266 84.4569 134.112 83.8005 134.154 83.1417C134.195 82.4829 134.431 81.8512 134.831 81.3265C135.231 80.8018 135.778 80.4076 136.401 80.1938C137.025 79.9799 137.698 79.9559 138.335 80.1249C138.759 80.2373 139.157 80.4323 139.505 80.6988C139.854 80.9652 140.146 81.2979 140.366 81.6777C140.586 82.0575 140.729 82.477 140.787 82.9122C140.845 83.3475 140.816 83.7898 140.703 84.214Z" fill="#FAFAFA"/>
<path d="M196.804 62.3848C195.857 64.9689 194.552 69.7725 196.131 71.85C196.131 71.85 194.972 74.4392 190.023 73.6437C184.579 72.7671 187.853 70.5224 187.853 70.5224C190.939 70.2893 191.212 68.07 191.03 65.9114L196.804 62.3848Z" fill="#E4897B"/>
<path d="M186.714 71.384C186.992 70.9127 186.744 69.0734 186.744 69.0734C186.744 69.0734 194.618 68.4907 197.37 69.6561C198.843 70.2794 197.37 72.9041 197.37 72.9041L186.714 71.384Z" fill="#009969"/>
<path opacity="0.1" d="M186.714 71.384C186.992 70.9127 186.744 69.0734 186.744 69.0734C186.744 69.0734 194.618 68.4907 197.37 69.6561C198.843 70.2794 197.37 72.9041 197.37 72.9041L186.714 71.384Z" fill="black"/>
<path d="M187.726 57.8446C187.675 58.1385 187.483 58.3513 187.291 58.3209C187.099 58.2905 186.982 58.027 187.028 57.7331C187.073 57.4392 187.271 57.2264 187.463 57.2568C187.655 57.2872 187.756 57.5507 187.726 57.8446Z" fill="#263238"/>
<path d="M187.691 57.9922C187.197 58.8342 186.589 59.6033 185.884 60.2774C186.06 60.4567 186.273 60.595 186.508 60.6826C186.744 60.7702 186.995 60.8048 187.245 60.7841L187.691 57.9922Z" fill="#DE5753"/>
<path d="M188.91 56.9321C188.878 56.9337 188.846 56.9259 188.818 56.9097C188.79 56.8936 188.768 56.8697 188.753 56.8409C188.657 56.6436 188.514 56.4723 188.338 56.341C188.162 56.2097 187.958 56.1223 187.741 56.086C187.7 56.0762 187.663 56.0518 187.638 56.0173C187.614 55.9828 187.602 55.9404 187.606 55.898C187.609 55.8556 187.628 55.8159 187.658 55.7862C187.689 55.7565 187.729 55.7388 187.772 55.7363C188.046 55.7784 188.306 55.8854 188.53 56.0484C188.755 56.2115 188.937 56.4259 189.062 56.6737C189.084 56.7148 189.088 56.7628 189.075 56.8073C189.062 56.8518 189.032 56.8894 188.991 56.9119C188.966 56.9256 188.938 56.9326 188.91 56.9321Z" fill="#263238"/>
<path d="M164.749 174.421L161.095 173.93L161.267 165.326L164.921 165.818L164.749 174.421Z" fill="#E4897B"/>
<path d="M192.022 178.465H188.333L185.464 169.912H189.148L192.022 178.465Z" fill="#E4897B"/>
<path d="M187.842 178.035H192.341C192.414 178.037 192.484 178.062 192.541 178.108C192.598 178.154 192.638 178.217 192.654 178.289L193.383 181.572C193.4 181.652 193.398 181.735 193.379 181.814C193.359 181.893 193.322 181.967 193.27 182.03C193.218 182.093 193.152 182.143 193.078 182.177C193.004 182.211 192.923 182.227 192.842 182.226C191.394 182.2 190.342 182.119 188.52 182.119C187.397 182.119 185.09 182.236 183.541 182.236C181.993 182.236 181.791 180.716 182.423 180.564C185.267 179.94 186.334 179.084 187.245 178.263C187.41 178.116 187.622 178.035 187.842 178.035Z" fill="#263238"/>
<path d="M160.969 173.095L164.961 173.632C165.033 173.642 165.1 173.677 165.15 173.73C165.199 173.784 165.229 173.853 165.234 173.926L165.518 177.275C165.525 177.356 165.513 177.437 165.484 177.513C165.456 177.588 165.41 177.657 165.351 177.712C165.292 177.768 165.221 177.809 165.144 177.834C165.067 177.858 164.985 177.864 164.905 177.853C163.468 177.63 161.404 177.265 159.592 177.022C157.477 176.733 156.05 176.576 153.586 176.241C152.068 176.039 151.876 174.463 152.524 174.407C155.463 174.169 157.376 174.448 160.048 173.257C160.334 173.119 160.653 173.063 160.969 173.095Z" fill="#263238"/>
<path d="M161.267 165.326L161.176 169.765L164.835 170.256L164.921 165.823L161.267 165.326Z" fill="#CE6F64"/>
<path d="M189.153 169.918H185.464L186.947 174.326H190.636L189.153 169.918Z" fill="#CE6F64"/>
<path d="M182.16 70.8924C182.16 70.8924 176.356 81.3558 177.682 102.485L197.219 105.125C197.76 102.141 197.851 87.2336 202.653 73.4715C200.549 72.7603 198.401 72.1882 196.222 71.7589C193.478 71.2221 190.706 70.8465 187.918 70.634C185.995 70.5694 184.07 70.6559 182.16 70.8924Z" fill="#263238"/>
<path d="M184.407 76.2225C183.597 77.6261 182.737 78.9841 181.877 80.3623L179.261 84.4159C178.39 85.7739 177.48 87.1116 176.564 88.4696C176.108 89.1384 175.638 89.8022 175.167 90.466L174.454 91.4794C174.191 91.8391 173.882 92.2495 173.588 92.589C172.436 93.9081 171.166 95.1191 169.793 96.2069C168.473 97.2608 167.132 98.2337 165.745 99.1458C163.009 100.96 160.153 102.588 157.199 104.02L155.848 101.613C158.378 99.7538 160.908 97.7929 163.317 95.8015C164.516 94.7881 165.69 93.7747 166.788 92.7157C167.858 91.7153 168.843 90.6272 169.733 89.4627C169.945 89.184 170.107 88.956 170.299 88.6368L170.922 87.6234L172.161 85.5965L174.641 81.5075L177.12 77.4032C177.965 76.0452 178.79 74.667 179.65 73.3242L184.407 76.2225Z" fill="#E4897B"/>
<path d="M186.208 75.3875C185.737 78.8837 179.63 87.2038 179.63 87.2038L171.124 80.0137C171.124 80.0137 175.572 75.0328 179.22 72.1902C182.868 69.3476 186.714 71.5467 186.208 75.3875Z" fill="#263238"/>
<path d="M157.68 100.561L154.497 101.645L157.685 104.974C157.685 104.974 159.628 104.741 159.451 102.055L157.68 100.561Z" fill="#E4897B"/>
<path d="M152.387 104.178L156.025 105.967L157.685 104.974L154.497 101.645L152.387 104.178Z" fill="#E4897B"/>
<path d="M197.765 58.4217C196.966 61.999 196.677 64.1322 194.562 65.6929C191.374 68.0389 187.19 65.6929 186.906 61.9281C186.648 58.5585 187.999 53.2787 191.764 52.4071C192.592 52.2113 193.456 52.2309 194.275 52.4639C195.093 52.6968 195.838 53.1355 196.44 53.7383C197.041 54.341 197.479 55.0877 197.71 55.9074C197.942 56.7271 197.961 57.5927 197.765 58.4217Z" fill="#E4897B"/>
<path d="M202.709 58.3008C202.661 58.0255 202.556 57.7634 202.4 57.5319C202.244 57.3005 202.04 57.1048 201.803 56.9581C203.533 56.198 202.668 55.3164 201.191 54.0293C199.283 52.3218 198.489 48.866 198.575 48.1263C197.973 49.0434 198.134 50.3963 198.646 51.6124C198.009 50.9102 197.495 50.1049 197.128 49.2309C195.65 45.5167 192.457 48.7647 189.376 48.8711C184.199 49.0485 188.298 46.3376 192.098 46.4187C186.436 44.6807 180.789 46.8342 181.71 50.6243C182.631 54.4144 188.966 49.6109 188.93 53.1071C188.93 53.8165 189.705 54.5158 190.853 55.0681C189.259 58.3515 193.145 64.9488 195.407 65.1616C197.669 65.3744 201.631 61.4323 201.798 58.0171C202.117 58.053 202.426 58.1493 202.709 58.3008Z" fill="#263238"/>
<path d="M192.624 59.2379C192.399 60.1306 191.832 60.8986 191.045 61.3761C189.993 61.9943 189.158 61.1329 189.183 59.9726C189.209 58.9338 189.79 57.3529 190.969 57.206C191.228 57.1786 191.489 57.2161 191.729 57.3152C191.97 57.4143 192.182 57.5718 192.346 57.7735C192.51 57.9752 192.622 58.2147 192.67 58.4704C192.719 58.7261 192.703 58.9899 192.624 59.2379Z" fill="#E4897B"/>
<path d="M191.966 173.47H185.196C185.196 173.47 176.28 150.704 175.334 138.893C175.132 136.359 175.537 133.02 176.285 129.427C177.561 123.286 179.827 116.36 181.649 111.186C183.283 106.626 184.594 103.408 184.594 103.408L197.208 105.116C195.969 114.282 185.96 128.86 185.844 141.396C185.748 152.959 191.966 173.47 191.966 173.47Z" fill="#009969"/>
<path opacity="0.1" d="M191.966 173.47H185.196C185.196 173.47 176.28 150.704 175.334 138.893C175.132 136.359 175.537 133.02 176.285 129.427C177.561 123.286 179.827 116.36 181.649 111.186C183.283 106.626 184.594 103.408 184.594 103.408L197.208 105.116C195.969 114.282 185.96 128.86 185.844 141.396C185.748 152.959 191.966 173.47 191.966 173.47Z" fill="black"/>
<path d="M184.857 114.063C184.417 120.189 179.711 126.705 176.301 129.426C177.576 123.285 179.843 116.358 181.664 111.185C182.62 111.068 184.133 112.958 184.857 114.063Z" fill="#009969"/>
<path opacity="0.2" d="M184.857 114.063C184.417 120.189 179.711 126.705 176.301 129.426C177.576 123.285 179.843 116.358 181.664 111.185C182.62 111.068 184.133 112.958 184.857 114.063Z" fill="black"/>
<path d="M177.682 102.486C177.682 102.486 160.336 125.617 159.228 136.81C158.074 148.464 159.921 168.733 159.921 168.733L166.11 169.569C166.11 169.569 167.977 150.537 169.793 139.167C171.767 126.783 190.539 113.978 191.85 104.392L177.682 102.486Z" fill="#009969"/>
<path opacity="0.1" d="M177.682 102.486C177.682 102.486 160.336 125.617 159.228 136.81C158.074 148.464 159.921 168.733 159.921 168.733L166.11 169.569C166.11 169.569 167.977 150.537 169.793 139.167C171.767 126.783 190.539 113.978 191.85 104.392L177.682 102.486Z" fill="black"/>
<path d="M184.017 173.616H192.847V171.234L182.98 171.082L184.017 173.616Z" fill="#009969"/>
<path opacity="0.4" d="M184.017 173.616H192.847V171.234L182.98 171.082L184.017 173.616Z" fill="#FAFAFA"/>
<path d="M158.671 168.691L167.268 169.872L167.587 167.49L157.978 166.041L158.671 168.691Z" fill="#009969"/>
<path opacity="0.4" d="M158.671 168.691L167.268 169.872L167.587 167.49L157.978 166.041L158.671 168.691Z" fill="#FAFAFA"/>
<path d="M186.623 178.684C186.372 178.703 186.122 178.635 185.915 178.492C185.847 178.437 185.795 178.366 185.763 178.285C185.731 178.204 185.721 178.117 185.732 178.031C185.732 177.979 185.747 177.929 185.773 177.885C185.8 177.841 185.838 177.806 185.884 177.782C186.289 177.58 187.483 178.289 187.615 178.39C187.629 178.4 187.64 178.413 187.647 178.428C187.654 178.443 187.657 178.46 187.655 178.477C187.653 178.494 187.646 178.51 187.634 178.523C187.622 178.536 187.607 178.544 187.589 178.547C187.274 178.631 186.949 178.677 186.623 178.684ZM186.076 177.919C186.04 177.911 186.002 177.911 185.965 177.919C185.965 177.919 185.915 177.955 185.909 178.02C185.901 178.079 185.907 178.139 185.928 178.195C185.948 178.25 185.982 178.3 186.026 178.34C186.439 178.527 186.907 178.55 187.336 178.406C186.951 178.164 186.524 177.999 186.076 177.919Z" fill="#009969"/>
<path d="M187.569 178.55H187.529C187.144 178.343 186.41 177.537 186.486 177.121C186.499 177.057 186.534 176.999 186.585 176.958C186.635 176.916 186.699 176.893 186.765 176.893C186.831 176.884 186.898 176.889 186.962 176.908C187.025 176.927 187.084 176.96 187.134 177.005C187.564 177.355 187.64 178.419 187.64 178.464C187.643 178.48 187.64 178.497 187.633 178.511C187.626 178.526 187.614 178.538 187.6 178.545L187.569 178.55ZM186.825 177.03H186.785C186.674 177.03 186.663 177.096 186.658 177.116C186.613 177.36 187.083 177.973 187.463 178.262C187.435 177.842 187.284 177.44 187.028 177.106C186.969 177.064 186.897 177.044 186.825 177.051V177.03Z" fill="#009969"/>
<path d="M160.038 173.571C159.461 173.571 158.773 173.495 158.52 173.186C158.468 173.125 158.432 173.053 158.413 172.976C158.395 172.898 158.395 172.818 158.413 172.74C158.424 172.693 158.446 172.649 158.476 172.612C158.507 172.575 158.546 172.546 158.591 172.527C159.066 172.345 160.432 173.287 160.589 173.394C160.604 173.404 160.615 173.419 160.622 173.436C160.628 173.454 160.629 173.472 160.625 173.49C160.619 173.507 160.609 173.523 160.594 173.534C160.58 173.545 160.562 173.551 160.544 173.551C160.402 173.561 160.22 173.571 160.038 173.571ZM158.732 172.679C158.701 172.672 158.668 172.672 158.636 172.679C158.619 172.685 158.603 172.696 158.591 172.71C158.58 172.724 158.572 172.742 158.57 172.76C158.557 172.811 158.556 172.864 158.568 172.915C158.579 172.966 158.603 173.014 158.636 173.054C158.833 173.282 159.436 173.404 160.255 173.373C159.799 173.042 159.281 172.806 158.732 172.679Z" fill="#009969"/>
<path d="M160.523 173.555H160.478C160.063 173.296 159.299 172.389 159.42 171.984C159.446 171.893 159.527 171.781 159.749 171.781H159.775C159.862 171.785 159.948 171.807 160.027 171.844C160.106 171.882 160.176 171.934 160.235 171.999C160.513 172.442 160.644 172.962 160.609 173.484C160.61 173.5 160.606 173.515 160.598 173.529C160.59 173.542 160.578 173.553 160.564 173.56L160.523 173.555ZM159.749 171.943C159.608 171.943 159.592 171.999 159.587 172.019C159.511 172.263 160.023 172.962 160.437 173.296C160.451 172.873 160.335 172.455 160.103 172.1C160.062 172.052 160.011 172.014 159.953 171.987C159.896 171.96 159.833 171.945 159.77 171.943H159.749Z" fill="#009969"/>
</svg>
