<svg width="107" height="41" viewBox="0 0 107 41" fill="none" xmlns="http://www.w3.org/2000/svg">
<g opacity="0.59">
<path d="M96.0374 1.06699L5.1918 15.8552C2.72592 16.2566 1.05278 18.5838 1.45475 21.0531L4.09737 37.287C4.49933 39.7563 6.82418 41.4326 9.29006 41.0312L100.136 26.243C102.602 25.8416 104.275 23.5144 103.873 21.0451L101.23 4.81124C100.828 2.34194 98.5033 0.665583 96.0374 1.06699Z" fill="#009969"/>
<path opacity="0.6" d="M97.091 0.897068L6.24539 15.6853C3.77951 16.0867 2.10637 18.4139 2.50834 20.8832L5.15096 37.1171C5.55292 39.5864 7.87777 41.2627 10.3436 40.8613L101.189 26.0731C103.655 25.6717 105.328 23.3445 104.926 20.8752L102.284 4.64133C101.882 2.17202 99.5569 0.495661 97.091 0.897068Z" fill="#FAFAFA"/>
<path opacity="0.8" d="M98.145 0.725193L7.29934 15.5134C4.83346 15.9148 3.16033 18.242 3.56229 20.7113L6.20491 36.9452C6.60688 39.4145 8.93172 41.0908 11.3976 40.6894L102.243 25.9012C104.709 25.4998 106.382 23.1726 105.98 20.7033L103.338 4.46945C102.936 2.00015 100.611 0.323786 98.145 0.725193Z" fill="#C8E7DD"/>
<path d="M78.7999 9.34607L34.6307 16.5361C34.1038 16.6219 33.7464 17.1191 33.8323 17.6466L34.1416 19.5471C34.2275 20.0746 34.7242 20.4328 35.251 20.347L79.4203 13.157C79.9471 13.0712 80.3046 12.574 80.2187 12.0465L79.9093 10.146C79.8234 9.61845 79.3267 9.26031 78.7999 9.34607Z" fill="#009969"/>
<path d="M95.003 13.2219L35.6012 22.8916C35.0744 22.9774 34.717 23.4745 34.8028 24.0021L35.1122 25.9026C35.1981 26.4301 35.6948 26.7883 36.2216 26.7025L95.6233 17.0328C96.1502 16.9471 96.5076 16.4499 96.4217 15.9223L96.1124 14.0219C96.0265 13.4943 95.5298 13.1362 95.003 13.2219Z" fill="#009969"/>
<path opacity="0.5" d="M52.9141 25.7824L36.7027 28.4213C36.4159 28.468 36.2213 28.7387 36.268 29.026L36.3323 29.4211C36.3791 29.7083 36.6495 29.9033 36.9364 29.8566L53.1478 27.2177C53.4346 27.171 53.6293 26.9003 53.5825 26.613L53.5182 26.2179C53.4714 25.9307 53.201 25.7357 52.9141 25.7824Z" fill="#FAFAFA"/>
<path d="M26.4071 29.6702C26.7681 24.666 23.0093 20.3144 18.0115 19.9507C13.0137 19.587 8.66949 23.3489 8.30847 28.3531C7.94745 33.3573 11.7063 37.7089 16.7041 38.0726C21.7019 38.4363 26.0461 34.6744 26.4071 29.6702Z" fill="#009969"/>
<path d="M24.7466 27.806C24.9849 29.2699 24.7843 30.7715 24.1703 32.1209C23.5563 33.4704 22.5563 34.607 21.2969 35.3871C20.0374 36.1671 18.5751 36.5557 17.0948 36.5035C15.6145 36.4513 14.1827 35.9607 12.9805 35.0938C11.7783 34.2269 10.8596 33.0227 10.3407 31.6333C9.82173 30.2439 9.72585 28.7318 10.0651 27.2883C10.4044 25.8447 11.1636 24.5345 12.2468 23.5233C13.3299 22.5121 14.6883 21.8454 16.1502 21.6074C17.1214 21.4446 18.1153 21.476 19.0744 21.7C20.0336 21.9241 20.939 22.3361 21.7383 22.9125C22.5376 23.4889 23.215 24.2181 23.7314 25.058C24.2477 25.8979 24.5928 26.8319 24.7466 27.806Z" fill="#FAFAFA"/>
<path opacity="0.7" d="M24.4265 31.4783C23.9815 32.7509 23.2021 33.8796 22.1702 34.7456C21.1383 35.6116 19.8921 36.1828 18.563 36.3992C17.2338 36.6156 15.8708 36.469 14.6175 35.975C13.3642 35.481 12.267 34.6578 11.4414 33.5921C13.1556 31.9964 15.3032 30.9442 17.6138 30.5681C19.9243 30.192 22.2947 30.5087 24.4265 31.4783Z" fill="#7DC9B1"/>
<path opacity="0.7" d="M17.479 29.7726C19.2967 29.4767 20.53 27.7613 20.2337 25.9411C19.9374 24.1209 18.2237 22.8851 16.406 23.181C14.5883 23.4769 13.3549 25.1924 13.6512 27.0126C13.9475 28.8328 15.6613 30.0685 17.479 29.7726Z" fill="#7DC9B1"/>
</g>
</svg>
